<svg width="21" height="22" viewBox="0 0 21 22" fill="none" xmlns="http://www.w3.org/2000/svg">
<path d="M10.7269 0.92191C7.15266 0.912535 4.00734 2.76175 2.20969 5.5555C2.13 5.67972 2.21906 5.84379 2.36672 5.84379H4.01437C4.12687 5.84379 4.23234 5.79457 4.30266 5.70785C4.46672 5.50863 4.6425 5.31644 4.82766 5.13363C5.59172 4.37191 6.48 3.77191 7.46906 3.35472C8.49094 2.92347 9.57844 2.70316 10.7011 2.70316C11.8237 2.70316 12.9112 2.92113 13.9331 3.35472C14.9222 3.77191 15.8105 4.37191 16.5745 5.13363C17.3386 5.89535 17.9363 6.78363 18.3558 7.77035C18.7894 8.79222 19.0073 9.87738 19.0073 11C19.0073 12.1227 18.787 13.2078 18.3558 14.2297C17.9386 15.2164 17.3386 16.1047 16.5745 16.8664C15.8105 17.6282 14.9222 18.2282 13.9331 18.6453C12.9104 19.0773 11.8113 19.2989 10.7011 19.2969C9.57844 19.2969 8.49094 19.0766 7.46906 18.6453C6.48194 18.2286 5.58494 17.6245 4.82766 16.8664C4.6425 16.6813 4.46906 16.4891 4.30266 16.2922C4.23234 16.2055 4.12453 16.1563 4.01437 16.1563H2.36672C2.21906 16.1563 2.12766 16.3203 2.20969 16.4446C4.005 19.2313 7.13625 21.0782 10.7011 21.0782C16.237 21.0782 20.7323 16.6227 20.7886 11.1032C20.8448 5.49457 16.3425 0.935973 10.7269 0.92191ZM7.75781 13.625V11.8438H0.398438C0.295312 11.8438 0.210938 11.7594 0.210938 11.6563V10.3438C0.210938 10.2407 0.295312 10.1563 0.398438 10.1563H7.75781V8.37504C7.75781 8.218 7.94063 8.12894 8.0625 8.22738L11.3883 10.8524C11.4107 10.8699 11.4288 10.8923 11.4413 10.9179C11.4537 10.9435 11.4602 10.9716 11.4602 11C11.4602 11.0285 11.4537 11.0566 11.4413 11.0822C11.4288 11.1077 11.4107 11.1302 11.3883 11.1477L8.0625 13.7727C7.94063 13.8688 7.75781 13.7821 7.75781 13.625Z" fill="#F1FAEE"/>
</svg>